<?xml version="1.0" ?><!DOCTYPE svg  PUBLIC '-//W3C//DTD SVG 1.1//EN'  'http://www.w3.org/Graphics/SVG/1.1/DTD/svg11.dtd'><svg enable-background="new 0 0 512 512" height="512px" id="Layer_1" version="1.1" viewBox="0 0 512 512" width="512px" xml:space="preserve" xmlns="http://www.w3.org/2000/svg" xmlns:xlink="http://www.w3.org/1999/xlink"><path clip-rule="evenodd" d="M426.794,359.478c0,18.253-4.252,35.688-11.978,51.685H256.002H97.186  c-7.727-15.996-11.979-33.432-11.979-51.685c0-104.799,129.389-119.403,168.979-204.893c-8.009-0.279-16.069-2.468-23.491-6.752  c-24.19-13.963-32.488-44.916-18.518-69.118c6.018-10.431,15.202-17.904,25.644-21.916c-3.82,3.123-7.14,6.974-9.75,11.495  c-11.615,20.109-4.724,45.831,15.386,57.436c20.106,11.61,45.83,4.716,57.443-15.385c2.604-4.525,4.28-9.333,5.078-14.197  c1.741,11.047-0.139,22.731-6.164,33.165c-9.038,15.649-25.175,24.646-41.996,25.269  C297.404,240.075,426.794,254.677,426.794,359.478L426.794,359.478z M96.993,425.917h318.014v31.071H96.993V425.917L96.993,425.917z   M267.436,55.011l-6.376,19.755l-20.76-0.047l16.819,12.17l-6.455,19.725l16.772-12.229l16.772,12.229l-6.453-19.725l16.813-12.17  l-20.76,0.047L267.436,55.011z" fill-rule="evenodd"/></svg>